<svg xmlns="http://www.w3.org/2000/svg" viewBox="0 0 47.62 47.62">
    <title>Ativo 69</title>
    <g id="Camada_2" data-name="Camada 2">
        <g id="Camada_1-2" data-name="Camada 1">
            <circle cx="23.81" cy="23.81" r="23.81" style="fill:#ff6600" />
            <path
         d="m 26.267634,5.9814153 c 0.0045,-0.4441739 -0.4528,-0.7503552 -0.888354,-0.5994219 L 11.109577,10.500804 c -0.258746,0.09056 -0.431238,0.332054 -0.431238,0.599422 V 35.792981 H 26.267634 Z M 17.45311,30.885483 c 0,0.530421 -0.439862,0.961663 -0.991858,0.961663 H 14.72767 c -0.54767,0 -0.99185,-0.426928 -0.99185,-0.961663 v -0.638239 c 0,-0.530421 0.43987,-0.96166 0.99185,-0.96166 h 1.733582 c 0.547679,0 0.991858,0.426925 0.991858,0.96166 z m 0,-3.743161 c 0,0.530426 -0.439862,0.961665 -0.991858,0.961665 H 14.72767 c -0.54767,0 -0.99185,-0.426925 -0.99185,-0.961665 V 26.50409 c 0,-0.530426 0.43987,-0.961665 0.99185,-0.961665 h 1.733582 c 0.547679,0 0.991858,0.426929 0.991858,0.961665 z m 0,-3.937213 c 0,0.530426 -0.439862,0.961665 -0.991858,0.961665 H 14.72767 c -0.54767,0 -0.99185,-0.426924 -0.99185,-0.961665 v -0.638233 c 0,-0.530425 0.43987,-0.961665 0.99185,-0.961665 h 1.733582 c 0.547679,0 0.991858,0.426928 0.991858,0.961665 z m 0,-3.859588 c 0,0.530422 -0.439862,0.961661 -0.991858,0.961661 H 14.72767 c -0.54767,0 -0.99185,-0.426925 -0.99185,-0.961661 v -0.638237 c 0,-0.530421 0.43987,-0.961664 0.99185,-0.961664 h 1.733582 c 0.547679,0 0.991858,0.426927 0.991858,0.961664 z m 0,-3.855281 c 0,0.530425 -0.439862,0.961664 -0.991858,0.961664 H 14.72767 c -0.54767,0 -0.99185,-0.426928 -0.99185,-0.961664 v -0.638234 c 0,-0.530425 0.43987,-0.961664 0.99185,-0.961664 h 1.733582 c 0.547679,0 0.991858,0.42693 0.991858,0.961664 z m 5.856223,15.395243 c 0,0.530421 -0.439862,0.961663 -0.99185,0.961663 h -1.733581 c -0.547672,0 -0.991852,-0.426928 -0.991852,-0.961663 v -0.638239 c 0,-0.530421 0.439864,-0.96166 0.991852,-0.96166 h 1.733581 c 0.547671,0 0.99185,0.426925 0.99185,0.96166 z m 0,-3.743161 c 0,0.530426 -0.439862,0.961665 -0.99185,0.961665 h -1.733581 c -0.547672,0 -0.991852,-0.426925 -0.991852,-0.961665 V 26.50409 c 0,-0.530426 0.439864,-0.961665 0.991852,-0.961665 h 1.733581 c 0.547671,0 0.99185,0.426929 0.99185,0.961665 z m 0,-3.937213 c 0,0.530426 -0.439862,0.961665 -0.99185,0.961665 h -1.733581 c -0.547672,0 -0.991852,-0.426924 -0.991852,-0.961665 v -0.638233 c 0,-0.530425 0.439864,-0.961665 0.991852,-0.961665 h 1.733581 c 0.547671,0 0.99185,0.426928 0.99185,0.961665 z m 0,-3.859588 c 0,0.530422 -0.439862,0.961661 -0.99185,0.961661 h -1.733581 c -0.547672,0 -0.991852,-0.426925 -0.991852,-0.961661 v -0.638237 c 0,-0.530421 0.439864,-0.961664 0.991852,-0.961664 h 1.733581 c 0.547671,0 0.99185,0.426927 0.99185,0.961664 z m 0,-3.855281 c 0,0.530425 -0.439862,0.961664 -0.99185,0.961664 h -1.733581 c -0.547672,0 -0.991852,-0.426928 -0.991852,-0.961664 v -0.638234 c 0,-0.530425 0.439864,-0.961664 0.991852,-0.961664 h 1.733581 c 0.547671,0 0.99185,0.42693 0.99185,0.961664 z m 0,-3.764715 c 0,0.53042 -0.439862,0.961662 -0.99185,0.961662 h -1.733581 c -0.547672,0 -0.991852,-0.426927 -0.991852,-0.961662 v -0.638238 c 0,-0.530421 0.439864,-0.96166 0.991852,-0.96166 h 1.733581 c 0.547671,0 0.99185,0.426925 0.99185,0.96166 z m 14.774254,2.859112 c 0.0046,-0.237181 -0.12937,-0.452799 -0.340676,-0.564923 L 28.38933,9.120838 c -0.439864,-0.23287 -0.9746,0.08194 -0.9746,0.564925 v 26.111532 h 10.668857 z m -3.60516,16.300846 c 0,0.530421 -0.439863,0.961663 -0.991851,0.961663 h -1.733581 c -0.547671,0 -0.991843,-0.426928 -0.991843,-0.961663 v -0.638239 c 0,-0.530421 0.439862,-0.96166 0.991843,-0.96166 h 1.733581 c 0.547679,0 0.991851,0.426925 0.991851,0.96166 z m 0,-3.743161 c 0,0.530426 -0.439863,0.961665 -0.991851,0.961665 h -1.733581 c -0.547671,0 -0.991843,-0.426925 -0.991843,-0.961665 V 26.50409 c 0,-0.530426 0.439862,-0.961665 0.991843,-0.961665 h 1.733581 c 0.547679,0 0.991851,0.426929 0.991851,0.961665 z m 0,-3.937213 c 0,0.530426 -0.439863,0.961665 -0.991851,0.961665 h -1.733581 c -0.547671,0 -0.991843,-0.426924 -0.991843,-0.961665 v -0.638233 c 0,-0.530425 0.439862,-0.961665 0.991843,-0.961665 h 1.733581 c 0.547679,0 0.991851,0.426928 0.991851,0.961665 z m 0,-3.859588 c 0,0.530422 -0.439863,0.961661 -0.991851,0.961661 h -1.733581 c -0.547671,0 -0.991843,-0.426925 -0.991843,-0.961661 v -0.638237 c 0,-0.530421 0.439862,-0.961664 0.991843,-0.961664 h 1.733581 c 0.547679,0 0.991851,0.426927 0.991851,0.961664 z m 0,-3.855281 c 0,0.530425 -0.439863,0.961664 -0.991851,0.961664 h -1.733581 c -0.547671,0 -0.991843,-0.426928 -0.991843,-0.961664 v -0.638234 c 0,-0.530425 0.439862,-0.961664 0.991843,-0.961664 h 1.733581 c 0.547679,0 0.991851,0.42693 0.991851,0.961664 z"
         fill="#66afff"
         id="path1"
         style="overflow:hidden;fill:#f9f9f9;stroke-width:0.0431239" />
         <path
         d="M 39.71367,38.841846 H 8.2849631 c -0.3622434,0 -0.6554855,-0.344993 -0.6554855,-0.763296 v -1.522275 c 0,-0.418303 0.2932421,-0.763294 0.6554855,-0.763294 H 39.71367 c 0.362243,0 0.655485,0.344991 0.655485,0.763294 v 1.522275 c 0,0.422614 -0.293242,0.763296 -0.655485,0.763296 z"
         fill="#66afff"
         id="path2"
         style="overflow:hidden;fill:#f9f9f9;stroke-width:0.0431239" />
        </g>
    </g>

</svg>
