<?xml version="1.0" encoding="UTF-8" standalone="no"?>
<svg
   viewBox="0 0 2267.6644 2267.6644"
   version="1.1"
   id="svg1"
   xml:space="preserve"
   width="2267.6643"
   height="2267.6643"
   xmlns="http://www.w3.org/2000/svg"
   xmlns:svg="http://www.w3.org/2000/svg"><defs
     id="defs1" /><title
     id="title1">Ativo 69</title><path
     id="path2"
     style="fill:#ffcc00;stroke-width:0.938288"
     d="M 23.804688,0.046875 A 23.809999,23.809999 0 0 0 -0.00585938,23.857422 23.809999,23.809999 0 0 0 23.804688,47.667969 23.809999,23.809999 0 0 0 47.615234,23.857422 23.809999,23.809999 0 0 0 23.804688,0.046875 Z m 1.558593,6.03125 c 0.376963,-0.036219 0.724454,0.2445194 0.720703,0.6308594 V 36.34375 h 1.140625 V 10.390625 c 0,-0.4801119 0.531506,-0.7920294 0.96875,-0.5605469 l 9.296875,4.8691409 c 0.210049,0.111454 0.344131,0.326731 0.339844,0.5625 V 36.34375 h 1.619141 c 0.360084,0 0.652343,0.342001 0.652343,0.757812 v 1.513672 c 0,0.420098 -0.292259,0.757813 -0.652343,0.757813 H 8.2089844 c -0.3600839,0 -0.6523438,-0.342001 -0.6523438,-0.757813 v -1.513672 c 0,-0.415811 0.2922599,-0.757812 0.6523438,-0.757812 H 10.587891 V 11.796875 c 0,-0.265776 0.170531,-0.505682 0.427734,-0.595703 L 25.201172,6.1132812 c 0.05412,-0.018754 0.108257,-0.029982 0.162109,-0.035156 z M 37.830078,36.34375 H 27.224609 v 0.0039 H 37.830078 Z M 20.433594,10.828125 c -0.5487,0 -0.984375,0.429766 -0.984375,0.957031 v 0.634766 c 0,0.531552 0.439962,0.955078 0.984375,0.955078 h 1.724609 c 0.548699,0 0.984375,-0.427812 0.984375,-0.955078 v -0.634766 c 0,-0.531552 -0.439962,-0.957031 -0.984375,-0.957031 z m -5.820313,3.742187 c -0.548699,0 -0.986328,0.429766 -0.986328,0.957032 v 0.634765 c 0,0.531553 0.441916,0.955079 0.986328,0.955079 h 1.722657 c 0.548699,0 0.986328,-0.427813 0.986328,-0.955079 v -0.634765 c 0,-0.531553 -0.441916,-0.957032 -0.986328,-0.957032 z m 5.820313,0 c -0.5487,0 -0.984375,0.429766 -0.984375,0.957032 v 0.634765 c 0,0.531553 0.439962,0.955079 0.984375,0.955079 h 1.724609 c 0.548699,-10e-7 0.984375,-0.427813 0.984375,-0.955079 v -0.634765 c 0,-0.531553 -0.439962,-0.957032 -0.984375,-0.957032 z m 11.103515,0 c -0.548699,0 -0.986328,0.429766 -0.986328,0.957032 v 0.634765 c 0,0.531553 0.441916,0.955079 0.986328,0.955079 h 1.722657 c 0.548699,0 0.986328,-0.427813 0.986328,-0.955079 v -0.634765 c 0,-0.531553 -0.441916,-0.957032 -0.986328,-0.957032 z m -16.923828,3.833985 c -0.548699,0 -0.986328,0.427812 -0.986328,0.955078 v 0.634766 c 0,0.531552 0.441916,0.955078 0.986328,0.955078 h 1.722657 c 0.548699,0 0.986328,-0.427813 0.986328,-0.955078 v -0.634766 c 0,-0.531552 -0.441916,-0.955078 -0.986328,-0.955078 z m 5.820313,0 c -0.5487,0 -0.984375,0.427812 -0.984375,0.955078 v 0.634766 c 0,0.531552 0.439962,0.955078 0.984375,0.955078 h 1.724609 c 0.548699,0 0.984375,-0.427813 0.984375,-0.955078 v -0.634766 c 0,-0.531552 -0.439962,-0.955078 -0.984375,-0.955078 z m 11.103515,0 c -0.548699,0 -0.986328,0.427812 -0.986328,0.955078 v 0.634766 c 0,0.531552 0.441916,0.955078 0.986328,0.955078 h 1.722657 c 0.548699,0 0.986328,-0.427813 0.986328,-0.955078 v -0.634766 c 0,-0.531552 -0.441916,-0.955078 -0.986328,-0.955078 z m -16.923828,3.835937 c -0.548699,0 -0.986328,0.427813 -0.986328,0.955078 v 0.634766 c 0,0.531553 0.441916,0.957031 0.986328,0.957031 h 1.722657 c 0.548699,0 0.986328,-0.429765 0.986328,-0.957031 v -0.634766 c 0,-0.531552 -0.441916,-0.955078 -0.986328,-0.955078 z m 5.820313,0 c -0.5487,0 -0.984375,0.427813 -0.984375,0.955078 v 0.634766 c 0,0.531553 0.439962,0.957031 0.984375,0.957031 h 1.724609 c 0.548699,0 0.984375,-0.429765 0.984375,-0.957031 v -0.634766 c 0,-0.531552 -0.439962,-0.955078 -0.984375,-0.955078 z m 11.103515,0 c -0.548699,0 -0.986328,0.427813 -0.986328,0.955078 v 0.634766 c 0,0.531553 0.441916,0.957031 0.986328,0.957031 h 1.722657 c 0.548699,0 0.986328,-0.429765 0.986328,-0.957031 v -0.634766 c 0,-0.531552 -0.441916,-0.955078 -0.986328,-0.955078 z m -16.923828,3.914063 c -0.548699,0 -0.986328,0.427812 -0.986328,0.955078 v 0.634766 c 0,0.531552 0.441916,0.955078 0.986328,0.955078 h 1.722657 c 0.548699,0 0.986328,-0.427813 0.986328,-0.955078 v -0.634766 c 0,-0.531552 -0.441916,-0.955078 -0.986328,-0.955078 z m 5.820313,0 c -0.5487,0 -0.984375,0.427812 -0.984375,0.955078 v 0.634766 c 0,0.531552 0.439962,0.955078 0.984375,0.955078 h 1.724609 c 0.548699,0 0.984375,-0.427813 0.984375,-0.955078 v -0.634766 c 0,-0.531552 -0.439962,-0.955078 -0.984375,-0.955078 z m 11.103515,0 c -0.548699,0 -0.986328,0.427812 -0.986328,0.955078 v 0.634766 c 0,0.531552 0.441916,0.955078 0.986328,0.955078 h 1.722657 c 0.548699,0 0.986328,-0.427813 0.986328,-0.955078 v -0.634766 c 0,-0.531552 -0.441916,-0.955078 -0.986328,-0.955078 z M 14.613281,29.875 c -0.548699,0 -0.986328,0.427812 -0.986328,0.955078 v 0.634766 c 0,0.531552 0.441916,0.955078 0.986328,0.955078 h 1.722657 c 0.548699,0 0.986328,-0.427813 0.986328,-0.955078 v -0.634766 c 0,-0.531552 -0.441916,-0.955078 -0.986328,-0.955078 z m 5.820313,0 c -0.5487,0 -0.984375,0.427812 -0.984375,0.955078 v 0.634766 c 0,0.531552 0.439962,0.955078 0.984375,0.955078 h 1.724609 c 0.548699,0 0.984375,-0.427813 0.984375,-0.955078 v -0.634766 c 0,-0.531552 -0.439962,-0.955078 -0.984375,-0.955078 z m 11.103515,0 c -0.548699,0 -0.986328,0.427812 -0.986328,0.955078 v 0.634766 c 0,0.531552 0.441916,0.955078 0.986328,0.955078 h 1.722657 c 0.548699,0 0.986328,-0.427813 0.986328,-0.955078 v -0.634766 c 0,-0.531552 -0.441916,-0.955078 -0.986328,-0.955078 z" /></svg>
