<?xml version="1.0" encoding="UTF-8" standalone="no"?>
<!-- Created with Inkscape (http://www.inkscape.org/) -->

<svg
   width="250.72934mm"
   height="250.71664mm"
   viewBox="0 0 250.72934 250.71664"
   version="1.1"
   id="svg1"
   xmlns="http://www.w3.org/2000/svg"
   xmlns:svg="http://www.w3.org/2000/svg">
  <defs
     id="defs1" />
  <g
     id="layer1"
     transform="translate(176.80241,-4.1655014)">
    <path
       id="path2"
       style="fill:#ffcc00;stroke-width:4.93569"
       d="M -51.393748,4.6459862 A 125.24852,125.24852 0 0 0 -176.64515,129.8974 125.24852,125.24852 0 0 0 -51.393748,255.14882 125.24852,125.24852 0 0 0 73.857676,129.8974 125.24852,125.24852 0 0 0 -51.393748,4.6459862 Z m 8.198722,31.7263818 c 1.982959,-0.190527 3.81087,1.28626 3.791134,3.318534 V 195.57965 h 6.000072 V 59.057558 c 0,-2.52555 2.795901,-4.166339 5.095945,-2.948659 l 48.904656,25.613298 c 1.104949,0.586292 1.81025,1.718721 1.787712,2.958936 V 195.57965 h 8.517212 c 1.894147,0 3.431547,1.79904 3.431547,3.98634 v 7.96242 c 0,2.20984 -1.5374,3.98634 -3.431547,3.98634 H -133.43234 c -1.89416,0 -3.43154,-1.79903 -3.43154,-3.98634 v -7.96242 c 0,-2.1873 1.53738,-3.98634 3.43154,-3.98634 h 12.51384 V 66.454906 c 0,-1.398078 0.89704,-2.660053 2.25003,-3.133595 l 74.620692,-26.763997 c 0.284692,-0.09865 0.569465,-0.157721 0.852752,-0.184946 z M 22.384493,195.57965 H -33.40382 v 0.0205 H 22.384493 Z M -69.126818,61.358956 c -2.886352,0 -5.178145,2.260718 -5.178145,5.034304 v 3.339085 c 0,2.79614 2.31434,5.024018 5.178145,5.024018 h 9.072008 c 2.886344,0 5.178146,-2.250426 5.178146,-5.024018 V 66.39326 c 0,-2.79614 -2.31435,-5.034304 -5.178146,-5.034304 z m -30.6168,19.685148 c -2.886332,0 -5.188392,2.260715 -5.188392,5.034314 v 3.339074 c 0,2.796136 2.32461,5.024033 5.188392,5.024033 h 9.061763 c 2.886335,0 5.188411,-2.250434 5.188411,-5.024033 v -3.339074 c 0,-2.796156 -2.324622,-5.034314 -5.188411,-5.034314 z m 30.6168,0 c -2.886352,0 -5.178145,2.260715 -5.178145,5.034314 v 3.339074 c 0,2.796136 2.31434,5.024033 5.178145,5.024033 h 9.072008 c 2.886344,0 5.178146,-2.250434 5.178146,-5.024033 v -3.339074 c 0,-2.796156 -2.31435,-5.034314 -5.178146,-5.034314 z m 58.408188,0 c -2.886343,0 -5.188418,2.260715 -5.188418,5.034314 v 3.339074 c 0,2.796136 2.324621,5.024033 5.188418,5.024033 h 9.0617453 c 2.8863525,0 5.1884179,-2.250434 5.1884179,-5.024033 v -3.339074 c 0,-2.796156 -2.3246393,-5.034314 -5.1884179,-5.034314 z m -89.024988,20.168046 c -2.886332,0 -5.188392,2.25042 -5.188392,5.02403 v 3.33908 c 0,2.79615 2.32461,5.02403 5.188392,5.02403 h 9.061763 c 2.886335,0 5.188411,-2.25044 5.188411,-5.02403 v -3.33908 c 0,-2.79615 -2.324622,-5.02403 -5.188411,-5.02403 z m 30.6168,0 c -2.886352,0 -5.178145,2.25042 -5.178145,5.02403 v 3.33908 c 0,2.79615 2.31434,5.02403 5.178145,5.02403 h 9.072008 c 2.886344,0 5.178146,-2.25044 5.178146,-5.02403 v -3.33908 c 0,-2.79615 -2.31435,-5.02403 -5.178146,-5.02403 z m 58.408188,0 c -2.886343,0 -5.188418,2.25042 -5.188418,5.02403 v 3.33908 c 0,2.79615 2.324621,5.02403 5.188418,5.02403 h 9.0617453 c 2.8863525,0 5.1884179,-2.25044 5.1884179,-5.02403 v -3.33908 c 0,-2.79615 -2.3246393,-5.02403 -5.1884179,-5.02403 z m -89.024988,20.17829 c -2.886332,0 -5.188392,2.25044 -5.188392,5.02404 v 3.33909 c 0,2.79616 2.32461,5.03428 5.188392,5.03428 h 9.061763 c 2.886335,0 5.188411,-2.2607 5.188411,-5.03428 v -3.33909 c 0,-2.79613 -2.324622,-5.02404 -5.188411,-5.02404 z m 30.6168,0 c -2.886352,0 -5.178145,2.25044 -5.178145,5.02404 v 3.33909 c 0,2.79616 2.31434,5.03428 5.178145,5.03428 h 9.072008 c 2.886344,0 5.178146,-2.2607 5.178146,-5.03428 v -3.33909 c 0,-2.79613 -2.31435,-5.02404 -5.178146,-5.02404 z m 58.408188,0 c -2.886343,0 -5.188418,2.25044 -5.188418,5.02404 v 3.33909 c 0,2.79616 2.324621,5.03428 5.188418,5.03428 h 9.0617453 c 2.8863525,0 5.1884179,-2.2607 5.1884179,-5.03428 v -3.33909 c 0,-2.79613 -2.3246393,-5.02404 -5.1884179,-5.02404 z m -89.024988,20.58928 c -2.886332,0 -5.188392,2.25044 -5.188392,5.02402 v 3.3391 c 0,2.79612 2.32461,5.02402 5.188392,5.02402 h 9.061763 c 2.886335,0 5.188411,-2.25043 5.188411,-5.02402 v -3.3391 c 0,-2.79612 -2.324622,-5.02402 -5.188411,-5.02402 z m 30.6168,0 c -2.886352,0 -5.178145,2.25044 -5.178145,5.02402 v 3.3391 c 0,2.79612 2.31434,5.02402 5.178145,5.02402 h 9.072008 c 2.886344,0 5.178146,-2.25043 5.178146,-5.02402 v -3.3391 c 0,-2.79612 -2.31435,-5.02402 -5.178146,-5.02402 z m 58.408188,0 c -2.886343,0 -5.188418,2.25044 -5.188418,5.02402 v 3.3391 c 0,2.79612 2.324621,5.02402 5.188418,5.02402 h 9.0617453 c 2.8863525,0 5.1884179,-2.25043 5.1884179,-5.02402 v -3.3391 c 0,-2.79612 -2.3246393,-5.02402 -5.1884179,-5.02402 z m -89.024988,19.57213 c -2.886332,0 -5.188392,2.25045 -5.188392,5.02403 v 3.3391 c 0,2.79612 2.32461,5.02402 5.188392,5.02402 h 9.061763 c 2.886335,0 5.188411,-2.25044 5.188411,-5.02402 v -3.3391 c 0,-2.79613 -2.324622,-5.02403 -5.188411,-5.02403 z m 30.6168,0 c -2.886352,0 -5.178145,2.25045 -5.178145,5.02403 v 3.3391 c 0,2.79612 2.31434,5.02402 5.178145,5.02402 h 9.072008 c 2.886344,0 5.178146,-2.25044 5.178146,-5.02402 v -3.3391 c 0,-2.79613 -2.31435,-5.02403 -5.178146,-5.02403 z m 58.408188,0 c -2.886343,0 -5.188418,2.25045 -5.188418,5.02403 v 3.3391 c 0,2.79612 2.324621,5.02402 5.188418,5.02402 h 9.0617453 c 2.8863525,0 5.1884179,-2.25044 5.1884179,-5.02402 v -3.3391 c 0,-2.79613 -2.3246393,-5.02403 -5.1884179,-5.02403 z" />
  </g>
</svg>
