<?xml version="1.0" encoding="UTF-8" standalone="no"?>
<!-- Created with Inkscape (http://www.inkscape.org/) -->

<svg
   width="9.8755493mm"
   height="9.8755512mm"
   viewBox="0 0 9.8755493 9.8755512"
   version="1.1"
   id="svg1"
   xmlns="http://www.w3.org/2000/svg"
   xmlns:svg="http://www.w3.org/2000/svg">
  <defs
     id="defs1" />
  <g
     id="layer1"
     transform="translate(176.74742,-4.2368953)">
    <path
       id="path2"
       style="fill:#ffcc00;stroke-width:0.194579"
       d="m -171.80965,4.2368953 a 4.9376617,4.9376617 0 0 0 -4.93777,4.9377758 4.9376617,4.9376617 0 0 0 4.93777,4.9377759 4.9376617,4.9376617 0 0 0 4.93778,-4.9377759 4.9376617,4.9376617 0 0 0 -4.93778,-4.9377758 z m 0.32322,1.2507464 c 0.0782,-0.00751 0.15024,0.050707 0.14946,0.1308262 v 6.1455881 h 0.23654 V 6.3819581 c 0,-0.099564 0.11023,-0.1642494 0.20088,-0.1162447 l 1.92797,1.0097509 c 0.0436,0.023113 0.0713,0.067757 0.0705,0.1166496 v 4.3719421 h 0.33577 c 0.0747,0 0.13529,0.07092 0.13529,0.157153 v 0.313902 c 0,0.08712 -0.0605,0.157152 -0.13529,0.157152 h -6.47852 c -0.0747,0 -0.13528,-0.07092 -0.13528,-0.157152 v -0.313902 c 0,-0.08622 0.0606,-0.157153 0.13528,-0.157153 h 0.49334 V 6.6735831 c 0,-0.055116 0.0352,-0.104867 0.0888,-0.1235355 l 2.94177,-1.0551147 c 0.0113,-0.00389 0.0224,-0.00623 0.0335,-0.0073 z m 2.58533,6.2764143 h -2.19933 v 7.98e-4 h 2.19933 z m -3.60764,-5.2913702 c -0.11378,0 -0.20413,0.089125 -0.20413,0.198467 v 0.1316364 c 0,0.110232 0.0912,0.1980616 0.20413,0.1980616 h 0.35765 c 0.11378,0 0.20415,-0.088718 0.20415,-0.1980616 V 6.6711528 c 0,-0.110232 -0.0913,-0.198467 -0.20415,-0.198467 z m -1.207,0.7760458 c -0.11378,0 -0.20456,0.089125 -0.20456,0.1984677 v 0.131636 c 0,0.1102318 0.0917,0.1980618 0.20456,0.1980618 h 0.35724 c 0.11378,0 0.20456,-0.088718 0.20456,-0.1980618 v -0.131636 c 0,-0.1102327 -0.0917,-0.1984677 -0.20456,-0.1984677 z m 1.207,0 c -0.11378,0 -0.20413,0.089125 -0.20413,0.1984677 v 0.131636 c 0,0.1102318 0.0912,0.1980618 0.20413,0.1980618 h 0.35765 c 0.11378,0 0.20415,-0.088718 0.20415,-0.1980618 v -0.131636 c 0,-0.1102327 -0.0913,-0.1984677 -0.20415,-0.1984677 z m 2.30262,0 c -0.11377,0 -0.20454,0.089125 -0.20454,0.1984677 v 0.131636 c 0,0.1102318 0.0917,0.1980618 0.20454,0.1980618 h 0.35724 c 0.11381,0 0.20454,-0.088718 0.20454,-0.1980618 v -0.131636 c 0,-0.1102327 -0.0917,-0.1984677 -0.20454,-0.1984677 z m -3.50962,0.7950833 c -0.11378,0 -0.20456,0.088718 -0.20456,0.1980621 v 0.1316361 c 0,0.1102324 0.0917,0.1980619 0.20456,0.1980619 h 0.35724 c 0.11378,0 0.20456,-0.08872 0.20456,-0.1980619 V 8.241877 c 0,-0.1102326 -0.0917,-0.1980621 -0.20456,-0.1980621 z m 1.207,0 c -0.11378,0 -0.20413,0.088718 -0.20413,0.1980621 v 0.1316361 c 0,0.1102324 0.0912,0.1980619 0.20413,0.1980619 h 0.35765 c 0.11378,0 0.20415,-0.08872 0.20415,-0.1980619 V 8.241877 c 0,-0.1102326 -0.0913,-0.1980621 -0.20415,-0.1980621 z m 2.30262,0 c -0.11377,0 -0.20454,0.088718 -0.20454,0.1980621 v 0.1316361 c 0,0.1102324 0.0917,0.1980619 0.20454,0.1980619 h 0.35724 c 0.11381,0 0.20454,-0.08872 0.20454,-0.1980619 V 8.241877 c 0,-0.1102326 -0.0917,-0.1980621 -0.20454,-0.1980621 z m -3.50962,0.7954872 c -0.11378,0 -0.20456,0.08872 -0.20456,0.1980624 v 0.1316366 c 0,0.1102325 0.0917,0.1984658 0.20456,0.1984658 h 0.35724 c 0.11378,0 0.20456,-0.089124 0.20456,-0.1984658 V 9.0373645 c 0,-0.1102318 -0.0917,-0.1980624 -0.20456,-0.1980624 z m 1.207,0 c -0.11378,0 -0.20413,0.08872 -0.20413,0.1980624 v 0.1316366 c 0,0.1102325 0.0912,0.1984658 0.20413,0.1984658 h 0.35765 c 0.11378,0 0.20415,-0.089124 0.20415,-0.1984658 V 9.0373645 c 0,-0.1102318 -0.0913,-0.1980624 -0.20415,-0.1980624 z m 2.30262,0 c -0.11377,0 -0.20454,0.08872 -0.20454,0.1980624 v 0.1316366 c 0,0.1102325 0.0917,0.1984658 0.20454,0.1984658 h 0.35724 c 0.11381,0 0.20454,-0.089124 0.20454,-0.1984658 V 9.0373645 c 0,-0.1102318 -0.0917,-0.1980624 -0.20454,-0.1980624 z m -3.50962,0.8116893 c -0.11378,0 -0.20456,0.08872 -0.20456,0.1980615 v 0.1316376 c 0,0.1102285 0.0917,0.1980605 0.20456,0.1980605 h 0.35724 c 0.11378,0 0.20456,-0.08872 0.20456,-0.1980605 V 9.8490529 c 0,-0.1102313 -0.0917,-0.1980615 -0.20456,-0.1980615 z m 1.207,0 c -0.11378,0 -0.20413,0.08872 -0.20413,0.1980615 v 0.1316376 c 0,0.1102285 0.0912,0.1980605 0.20413,0.1980605 h 0.35765 c 0.11378,0 0.20415,-0.08872 0.20415,-0.1980605 V 9.8490529 c 0,-0.1102313 -0.0913,-0.1980615 -0.20415,-0.1980615 z m 2.30262,0 c -0.11377,0 -0.20454,0.08872 -0.20454,0.1980615 v 0.1316376 c 0,0.1102285 0.0917,0.1980605 0.20454,0.1980605 h 0.35724 c 0.11381,0 0.20454,-0.08872 0.20454,-0.1980605 V 9.8490529 c 0,-0.1102313 -0.0917,-0.1980615 -0.20454,-0.1980615 z m -3.50962,0.7715896 c -0.11378,0 -0.20456,0.08872 -0.20456,0.198062 v 0.131637 c 0,0.110231 0.0917,0.198062 0.20456,0.198062 h 0.35724 c 0.11378,0 0.20456,-0.08872 0.20456,-0.198062 v -0.131637 c 0,-0.110231 -0.0917,-0.198062 -0.20456,-0.198062 z m 1.207,0 c -0.11378,0 -0.20413,0.08872 -0.20413,0.198062 v 0.131637 c 0,0.110231 0.0912,0.198062 0.20413,0.198062 h 0.35765 c 0.11378,0 0.20415,-0.08872 0.20415,-0.198062 v -0.131637 c 0,-0.110231 -0.0913,-0.198062 -0.20415,-0.198062 z m 2.30262,0 c -0.11377,0 -0.20454,0.08872 -0.20454,0.198062 v 0.131637 c 0,0.110231 0.0917,0.198062 0.20454,0.198062 h 0.35724 c 0.11381,0 0.20454,-0.08872 0.20454,-0.198062 v -0.131637 c 0,-0.110231 -0.0917,-0.198062 -0.20454,-0.198062 z" />
  </g>
</svg>
