<?xml version="1.0" encoding="UTF-8" standalone="no"?>
<!-- Created with Inkscape (http://www.inkscape.org/) -->

<svg
   width="100mm"
   height="100mm"
   viewBox="0 0 100 100"
   version="1.1"
   id="svg1"
   xmlns="http://www.w3.org/2000/svg"
   xmlns:svg="http://www.w3.org/2000/svg">
  <defs
     id="defs1" />
  <g
     id="layer1"
     transform="translate(176.80241,-4.1655014)">
    <path
       id="path2"
       style="fill:#ffcc00;stroke-width:1.95819"
       d="m -126.78919,4.6459862 a 49.691174,49.691174 0 0 0 -49.69232,49.6923228 49.691174,49.691174 0 0 0 49.69232,49.692331 49.691174,49.691174 0 0 0 49.69232,-49.692331 49.691174,49.691174 0 0 0 -49.69232,-49.6923228 z m 3.25277,12.5871438 c 0.78671,-0.07559 1.51192,0.510311 1.5041,1.316597 v 61.847398 h 2.38046 V 26.233267 c 0,-1.001989 1.10925,-1.652956 2.02177,-1.169853 l 19.40246,10.161835 c 0.438378,0.232606 0.7182,0.681887 0.709258,1.17393 v 43.997946 h 3.379124 c 0.751485,0 1.361434,0.713752 1.361434,1.581543 v 3.159015 c 0,0.876733 -0.609949,1.581543 -1.361434,1.581543 h -65.197992 c -0.75148,0 -1.36143,-0.713748 -1.36143,-1.581543 v -3.159015 c 0,-0.867791 0.60995,-1.581543 1.36143,-1.581543 h 4.96475 v -51.22903 c 0,-0.554675 0.35589,-1.055351 0.89269,-1.243225 l 29.60505,-10.618364 c 0.11295,-0.03914 0.22593,-0.06257 0.33833,-0.07338 z m 26.018048,63.163995 h -22.133488 v 0.0081 h 22.133488 z M -133.82462,27.146324 c -1.14514,0 -2.05438,0.896919 -2.05438,1.997314 v 1.32475 c 0,1.109342 0.91819,1.993232 2.05438,1.993232 h 3.59923 c 1.14513,0 2.05438,-0.892836 2.05438,-1.993232 v -1.32475 c 0,-1.109343 -0.91819,-1.997314 -2.05438,-1.997314 z m -12.14693,7.809898 c -1.14513,0 -2.05845,0.896917 -2.05845,1.997317 v 1.324746 c 0,1.109341 0.92227,1.993238 2.05845,1.993238 h 3.59517 c 1.14513,0 2.05845,-0.892838 2.05845,-1.993238 v -1.324746 c 0,-1.109349 -0.92227,-1.997317 -2.05845,-1.997317 z m 12.14693,0 c -1.14514,0 -2.05438,0.896917 -2.05438,1.997317 v 1.324746 c 0,1.109341 0.91819,1.993238 2.05438,1.993238 h 3.59923 c 1.14513,0 2.05438,-0.892838 2.05438,-1.993238 v -1.324746 c 0,-1.109349 -0.91819,-1.997317 -2.05438,-1.997317 z m 23.17289,0 c -1.14512,0 -2.05845,0.896917 -2.05845,1.997317 v 1.324746 c 0,1.109341 0.92228,1.993238 2.05845,1.993238 h 3.59517 c 1.14514,0 2.05846,-0.892838 2.05846,-1.993238 v -1.324746 c 0,-1.109349 -0.92228,-1.997317 -2.05846,-1.997317 z m -35.31982,8.001483 c -1.14513,0 -2.05845,0.892833 -2.05845,1.993237 v 1.324749 c 0,1.109346 0.92227,1.993236 2.05845,1.993236 h 3.59517 c 1.14513,0 2.05845,-0.892841 2.05845,-1.993236 v -1.324749 c 0,-1.109346 -0.92227,-1.993237 -2.05845,-1.993237 z m 12.14693,0 c -1.14514,0 -2.05438,0.892833 -2.05438,1.993237 v 1.324749 c 0,1.109346 0.91819,1.993236 2.05438,1.993236 h 3.59923 c 1.14513,0 2.05438,-0.892841 2.05438,-1.993236 v -1.324749 c 0,-1.109346 -0.91819,-1.993237 -2.05438,-1.993237 z m 23.17289,0 c -1.14512,0 -2.05845,0.892833 -2.05845,1.993237 v 1.324749 c 0,1.109346 0.92228,1.993236 2.05845,1.993236 h 3.59517 c 1.14514,0 2.05846,-0.892841 2.05846,-1.993236 v -1.324749 c 0,-1.109346 -0.92228,-1.993237 -2.05846,-1.993237 z m -35.31982,8.005548 c -1.14513,0 -2.05845,0.89284 -2.05845,1.99324 v 1.324752 c 0,1.10935 0.92227,1.997303 2.05845,1.997303 h 3.59517 c 1.14513,0 2.05845,-0.896911 2.05845,-1.997303 v -1.324752 c 0,-1.109339 -0.92227,-1.99324 -2.05845,-1.99324 z m 12.14693,0 c -1.14514,0 -2.05438,0.89284 -2.05438,1.99324 v 1.324752 c 0,1.10935 0.91819,1.997303 2.05438,1.997303 h 3.59923 c 1.14513,0 2.05438,-0.896911 2.05438,-1.997303 v -1.324752 c 0,-1.109339 -0.91819,-1.99324 -2.05438,-1.99324 z m 23.17289,0 c -1.14512,0 -2.05845,0.89284 -2.05845,1.99324 v 1.324752 c 0,1.10935 0.92228,1.997303 2.05845,1.997303 h 3.59517 c 1.14514,0 2.05846,-0.896911 2.05846,-1.997303 v -1.324752 c 0,-1.109339 -0.92228,-1.99324 -2.05846,-1.99324 z m -35.31982,8.168602 c -1.14513,0 -2.05845,0.892841 -2.05845,1.993233 v 1.324757 c 0,1.109334 0.92227,1.993233 2.05845,1.993233 h 3.59517 c 1.14513,0 2.05845,-0.892837 2.05845,-1.993233 v -1.324757 c 0,-1.109334 -0.92227,-1.993233 -2.05845,-1.993233 z m 12.14693,0 c -1.14514,0 -2.05438,0.892841 -2.05438,1.993233 v 1.324757 c 0,1.109334 0.91819,1.993233 2.05438,1.993233 h 3.59923 c 1.14513,0 2.05438,-0.892837 2.05438,-1.993233 v -1.324757 c 0,-1.109334 -0.91819,-1.993233 -2.05438,-1.993233 z m 23.17289,0 c -1.14512,0 -2.05845,0.892841 -2.05845,1.993233 v 1.324757 c 0,1.109334 0.92228,1.993233 2.05845,1.993233 h 3.59517 c 1.14514,0 2.05846,-0.892837 2.05846,-1.993233 v -1.324757 c 0,-1.109334 -0.92228,-1.993233 -2.05846,-1.993233 z m -35.31982,7.76506 c -1.14513,0 -2.05845,0.892844 -2.05845,1.993236 v 1.324756 c 0,1.109335 0.92227,1.993233 2.05845,1.993233 h 3.59517 c 1.14513,0 2.05845,-0.892841 2.05845,-1.993233 v -1.324756 c 0,-1.109338 -0.92227,-1.993236 -2.05845,-1.993236 z m 12.14693,0 c -1.14514,0 -2.05438,0.892844 -2.05438,1.993236 v 1.324756 c 0,1.109335 0.91819,1.993233 2.05438,1.993233 h 3.59923 c 1.14513,0 2.05438,-0.892841 2.05438,-1.993233 v -1.324756 c 0,-1.109338 -0.91819,-1.993236 -2.05438,-1.993236 z m 23.17289,0 c -1.14512,0 -2.05845,0.892844 -2.05845,1.993236 v 1.324756 c 0,1.109335 0.92228,1.993233 2.05845,1.993233 h 3.59517 c 1.14514,0 2.05846,-0.892841 2.05846,-1.993233 v -1.324756 c 0,-1.109338 -0.92228,-1.993236 -2.05846,-1.993236 z" />
  </g>
</svg>
