<?xml version="1.0" encoding="UTF-8" standalone="no"?>
<!-- Created with Inkscape (http://www.inkscape.org/) -->

<svg
   width="4.8846397mm"
   height="4.8846416mm"
   viewBox="0 0 4.8846397 4.8846416"
   version="1.1"
   id="svg1"
   xmlns="http://www.w3.org/2000/svg"
   xmlns:svg="http://www.w3.org/2000/svg">
  <defs
     id="defs1" />
  <g
     id="layer1"
     transform="translate(176.74742,-4.2368953)">
    <path
       id="path2"
       style="fill:#ffcc00;stroke-width:0.0962426"
       d="m -174.3051,4.2368953 a 2.4422644,2.4422644 0 0 0 -2.44232,2.4423208 2.4422644,2.4422644 0 0 0 2.44232,2.4423209 2.4422644,2.4422644 0 0 0 2.44232,-2.4423209 2.4422644,2.4422644 0 0 0 -2.44232,-2.4423208 z m 0.15987,0.6186437 c 0.0387,-0.00371 0.0743,0.025081 0.0739,0.064709 v 3.0397286 h 0.117 V 5.2978855 c 0,-0.049246 0.0545,-0.081241 0.0994,-0.057497 l 0.95361,0.4994426 c 0.0216,0.011432 0.0353,0.033514 0.0349,0.057697 v 2.1624484 h 0.16608 c 0.0369,0 0.0669,0.035078 0.0669,0.077731 v 0.1552621 c 0,0.043091 -0.0299,0.07773 -0.0669,0.07773 h -3.2044 c -0.037,0 -0.0669,-0.035078 -0.0669,-0.07773 V 8.0377077 c 0,-0.042646 0.03,-0.077731 0.0669,-0.077731 h 0.24401 V 5.4421289 c 0,-0.027261 0.0174,-0.051869 0.0439,-0.061103 l 1.45505,-0.5218804 c 0.006,-0.00192 0.0111,-0.00308 0.0166,-0.00361 z m 1.27875,3.1044378 h -1.08783 v 3.947e-4 h 1.08783 z m -1.78441,-2.6172156 c -0.0563,0 -0.10096,0.044083 -0.10096,0.098166 v 0.06511 c 0,0.054523 0.0451,0.097965 0.10096,0.097965 h 0.17691 c 0.0563,0 0.10097,-0.043882 0.10097,-0.097965 v -0.06511 c 0,-0.054523 -0.0452,-0.098166 -0.10097,-0.098166 z m -0.597,0.3838475 c -0.0563,0 -0.10118,0.044083 -0.10118,0.098166 v 0.06511 c 0,0.054523 0.0454,0.097965 0.10118,0.097965 h 0.1767 c 0.0563,0 0.10118,-0.043882 0.10118,-0.097965 v -0.06511 c 0,-0.054523 -0.0454,-0.098166 -0.10118,-0.098166 z m 0.597,0 c -0.0563,0 -0.10096,0.044083 -0.10096,0.098166 v 0.06511 c 0,0.054523 0.0451,0.097965 0.10096,0.097965 h 0.17691 c 0.0563,0 0.10097,-0.043882 0.10097,-0.097965 v -0.06511 c 0,-0.054523 -0.0452,-0.098166 -0.10097,-0.098166 z m 1.13893,0 c -0.0563,0 -0.10117,0.044083 -0.10117,0.098166 v 0.06511 c 0,0.054523 0.0454,0.097965 0.10117,0.097965 h 0.17669 c 0.0563,0 0.10117,-0.043882 0.10117,-0.097965 v -0.06511 c 0,-0.054523 -0.0453,-0.098166 -0.10117,-0.098166 z m -1.73593,0.3932638 c -0.0563,0 -0.10118,0.043882 -0.10118,0.097965 v 0.06511 c 0,0.054523 0.0454,0.097965 0.10118,0.097965 h 0.1767 c 0.0563,0 0.10118,-0.043883 0.10118,-0.097965 v -0.06511 c 0,-0.054523 -0.0454,-0.097965 -0.10118,-0.097965 z m 0.597,0 c -0.0563,0 -0.10096,0.043882 -0.10096,0.097965 v 0.06511 c 0,0.054523 0.0451,0.097965 0.10096,0.097965 h 0.17691 c 0.0563,0 0.10097,-0.043883 0.10097,-0.097965 v -0.06511 c 0,-0.054523 -0.0452,-0.097965 -0.10097,-0.097965 z m 1.13893,0 c -0.0563,0 -0.10117,0.043882 -0.10117,0.097965 v 0.06511 c 0,0.054523 0.0454,0.097965 0.10117,0.097965 h 0.17669 c 0.0563,0 0.10117,-0.043883 0.10117,-0.097965 v -0.06511 c 0,-0.054523 -0.0453,-0.097965 -0.10117,-0.097965 z m -1.73593,0.3934636 c -0.0563,0 -0.10118,0.043883 -0.10118,0.097965 v 0.06511 c 0,0.054523 0.0454,0.098165 0.10118,0.098165 h 0.1767 c 0.0563,0 0.10118,-0.044082 0.10118,-0.098165 v -0.06511 c 0,-0.054523 -0.0454,-0.097965 -0.10118,-0.097965 z m 0.597,0 c -0.0563,0 -0.10096,0.043883 -0.10096,0.097965 v 0.06511 c 0,0.054523 0.0451,0.098165 0.10096,0.098165 h 0.17691 c 0.0563,0 0.10097,-0.044082 0.10097,-0.098165 v -0.06511 c 0,-0.054523 -0.0452,-0.097965 -0.10097,-0.097965 z m 1.13893,0 c -0.0563,0 -0.10117,0.043883 -0.10117,0.097965 v 0.06511 c 0,0.054523 0.0454,0.098165 0.10117,0.098165 h 0.17669 c 0.0563,0 0.10117,-0.044082 0.10117,-0.098165 v -0.06511 c 0,-0.054523 -0.0453,-0.097965 -0.10117,-0.097965 z m -1.73593,0.4014774 c -0.0563,0 -0.10118,0.043883 -0.10118,0.097965 v 0.065111 c 0,0.054521 0.0454,0.097965 0.10118,0.097965 h 0.1767 c 0.0563,0 0.10118,-0.043883 0.10118,-0.097965 v -0.065111 c 0,-0.054523 -0.0454,-0.097965 -0.10118,-0.097965 z m 0.597,0 c -0.0563,0 -0.10096,0.043883 -0.10096,0.097965 v 0.065111 c 0,0.054521 0.0451,0.097965 0.10096,0.097965 h 0.17691 c 0.0563,0 0.10097,-0.043883 0.10097,-0.097965 v -0.065111 c 0,-0.054523 -0.0452,-0.097965 -0.10097,-0.097965 z m 1.13893,0 c -0.0563,0 -0.10117,0.043883 -0.10117,0.097965 v 0.065111 c 0,0.054521 0.0454,0.097965 0.10117,0.097965 h 0.17669 c 0.0563,0 0.10117,-0.043883 0.10117,-0.097965 v -0.065111 c 0,-0.054523 -0.0453,-0.097965 -0.10117,-0.097965 z m -1.73593,0.3816434 c -0.0563,0 -0.10118,0.043883 -0.10118,0.097965 v 0.06511 c 0,0.054522 0.0454,0.097965 0.10118,0.097965 h 0.1767 c 0.0563,0 0.10118,-0.043883 0.10118,-0.097965 v -0.06511 c 0,-0.054522 -0.0454,-0.097965 -0.10118,-0.097965 z m 0.597,0 c -0.0563,0 -0.10096,0.043883 -0.10096,0.097965 v 0.06511 c 0,0.054522 0.0451,0.097965 0.10096,0.097965 h 0.17691 c 0.0563,0 0.10097,-0.043883 0.10097,-0.097965 v -0.06511 c 0,-0.054522 -0.0452,-0.097965 -0.10097,-0.097965 z m 1.13893,0 c -0.0563,0 -0.10117,0.043883 -0.10117,0.097965 v 0.06511 c 0,0.054522 0.0454,0.097965 0.10117,0.097965 h 0.17669 c 0.0563,0 0.10117,-0.043883 0.10117,-0.097965 v -0.06511 c 0,-0.054522 -0.0453,-0.097965 -0.10117,-0.097965 z" />
  </g>
</svg>
