<?xml version="1.0" encoding="UTF-8" standalone="no"?>
<!-- Created with Inkscape (http://www.inkscape.org/) -->

<svg
   width="49.557369mm"
   height="49.557373mm"
   viewBox="0 0 49.557369 49.557373"
   version="1.1"
   id="svg1"
   xmlns="http://www.w3.org/2000/svg"
   xmlns:svg="http://www.w3.org/2000/svg">
  <defs
     id="defs1" />
  <g
     id="layer1"
     transform="translate(176.48151,-4.6459862)">
    <path
       id="path2"
       style="fill:#ffcc00;stroke-width:0.976436"
       d="m -151.70283,4.6459862 a 24.778112,24.778112 0 0 0 -24.77868,24.7786848 24.778112,24.778112 0 0 0 24.77868,24.778689 24.778112,24.778112 0 0 0 24.77869,-24.778689 24.778112,24.778112 0 0 0 -24.77869,-24.7786848 z m 1.62197,6.2764798 c 0.39229,-0.03769 0.75391,0.254463 0.75001,0.656511 v 30.839717 h 1.187 v -27.00838 c 0,-0.499634 0.55312,-0.824234 1.00814,-0.583338 l 9.67488,5.067119 c 0.21859,0.115987 0.35813,0.340017 0.35367,0.58537 v 21.939229 h 1.68497 c 0.37472,0 0.67887,0.355907 0.67887,0.788624 v 1.575218 c 0,0.437176 -0.30415,0.788624 -0.67887,0.788624 h -32.51046 c -0.37472,0 -0.67887,-0.355905 -0.67887,-0.788624 v -1.575218 c 0,-0.432717 0.30415,-0.788624 0.67887,-0.788624 h 2.47563 V 16.873742 c 0,-0.276584 0.17746,-0.526242 0.44513,-0.619924 l 14.76233,-5.294763 c 0.0563,-0.01952 0.11265,-0.0312 0.1687,-0.03659 z m 12.9737,31.496228 h -11.03669 v 0.004 h 11.03669 z m -18.10383,-26.553092 c -0.57101,0 -1.0244,0.447242 -1.0244,0.995945 v 0.660576 c 0,0.553165 0.45785,0.99391 1.0244,0.99391 h 1.79473 c 0.57101,0 1.0244,-0.445206 1.0244,-0.99391 v -0.660576 c 0,-0.553165 -0.45785,-0.995945 -1.0244,-0.995945 z m -6.05697,3.894344 c -0.57101,0 -1.02643,0.447241 -1.02643,0.995947 v 0.660574 c 0,0.553164 0.45988,0.993912 1.02643,0.993912 h 1.7927 c 0.57101,0 1.02643,-0.445206 1.02643,-0.993912 v -0.660574 c 0,-0.553168 -0.45988,-0.995947 -1.02643,-0.995947 z m 6.05697,0 c -0.57101,0 -1.0244,0.447241 -1.0244,0.995947 v 0.660574 c 0,0.553164 0.45785,0.993912 1.0244,0.993912 h 1.79473 c 0.57101,0 1.0244,-0.445206 1.0244,-0.993912 v -0.660574 c 0,-0.553168 -0.45785,-0.995947 -1.0244,-0.995947 z m 11.55498,0 c -0.571,0 -1.02643,0.447241 -1.02643,0.995947 v 0.660574 c 0,0.553164 0.45989,0.993912 1.02643,0.993912 h 1.7927 c 0.57102,0 1.02644,-0.445206 1.02644,-0.993912 v -0.660574 c 0,-0.553168 -0.45989,-0.995947 -1.02644,-0.995947 z m -17.61195,3.989877 c -0.57101,0 -1.02643,0.445204 -1.02643,0.993912 v 0.660575 c 0,0.553167 0.45988,0.993912 1.02643,0.993912 h 1.7927 c 0.57101,0 1.02643,-0.445208 1.02643,-0.993912 v -0.660575 c 0,-0.553167 -0.45988,-0.993912 -1.02643,-0.993912 z m 6.05697,0 c -0.57101,0 -1.0244,0.445204 -1.0244,0.993912 v 0.660575 c 0,0.553167 0.45785,0.993912 1.0244,0.993912 h 1.79473 c 0.57101,0 1.0244,-0.445208 1.0244,-0.993912 v -0.660575 c 0,-0.553167 -0.45785,-0.993912 -1.0244,-0.993912 z m 11.55498,0 c -0.571,0 -1.02643,0.445204 -1.02643,0.993912 v 0.660575 c 0,0.553167 0.45989,0.993912 1.02643,0.993912 h 1.7927 c 0.57102,0 1.02644,-0.445208 1.02644,-0.993912 v -0.660575 c 0,-0.553167 -0.45989,-0.993912 -1.02644,-0.993912 z m -17.61195,3.991903 c -0.57101,0 -1.02643,0.445208 -1.02643,0.993914 v 0.660577 c 0,0.553168 0.45988,0.995939 1.02643,0.995939 h 1.7927 c 0.57101,0 1.02643,-0.447237 1.02643,-0.995939 V 28.73564 c 0,-0.553164 -0.45988,-0.993914 -1.02643,-0.993914 z m 6.05697,0 c -0.57101,0 -1.0244,0.445208 -1.0244,0.993914 v 0.660577 c 0,0.553168 0.45785,0.995939 1.0244,0.995939 h 1.79473 c 0.57101,0 1.0244,-0.447237 1.0244,-0.995939 V 28.73564 c 0,-0.553164 -0.45785,-0.993914 -1.0244,-0.993914 z m 11.55498,0 c -0.571,0 -1.02643,0.445208 -1.02643,0.993914 v 0.660577 c 0,0.553168 0.45989,0.995939 1.02643,0.995939 h 1.7927 c 0.57102,0 1.02644,-0.447237 1.02644,-0.995939 V 28.73564 c 0,-0.553164 -0.45989,-0.993914 -1.02644,-0.993914 z m -17.61195,4.073209 c -0.57101,0 -1.02643,0.445208 -1.02643,0.99391 v 0.66058 c 0,0.55316 0.45988,0.99391 1.02643,0.99391 h 1.7927 c 0.57101,0 1.02643,-0.445207 1.02643,-0.99391 v -0.66058 c 0,-0.553161 -0.45988,-0.99391 -1.02643,-0.99391 z m 6.05697,0 c -0.57101,0 -1.0244,0.445208 -1.0244,0.99391 v 0.66058 c 0,0.55316 0.45785,0.99391 1.0244,0.99391 h 1.79473 c 0.57101,0 1.0244,-0.445207 1.0244,-0.99391 v -0.66058 c 0,-0.553161 -0.45785,-0.99391 -1.0244,-0.99391 z m 11.55498,0 c -0.571,0 -1.02643,0.445208 -1.02643,0.99391 v 0.66058 c 0,0.55316 0.45989,0.99391 1.02643,0.99391 h 1.7927 c 0.57102,0 1.02644,-0.445207 1.02644,-0.99391 v -0.66058 c 0,-0.553161 -0.45989,-0.99391 -1.02644,-0.99391 z m -17.61195,3.871986 c -0.57101,0 -1.02643,0.44521 -1.02643,0.993912 v 0.660579 c 0,0.553161 0.45988,0.99391 1.02643,0.99391 h 1.7927 c 0.57101,0 1.02643,-0.445209 1.02643,-0.99391 v -0.660579 c 0,-0.553163 -0.45988,-0.993912 -1.02643,-0.993912 z m 6.05697,0 c -0.57101,0 -1.0244,0.44521 -1.0244,0.993912 v 0.660579 c 0,0.553161 0.45785,0.99391 1.0244,0.99391 h 1.79473 c 0.57101,0 1.0244,-0.445209 1.0244,-0.99391 v -0.660579 c 0,-0.553163 -0.45785,-0.993912 -1.0244,-0.993912 z m 11.55498,0 c -0.571,0 -1.02643,0.44521 -1.02643,0.993912 v 0.660579 c 0,0.553161 0.45989,0.99391 1.02643,0.99391 h 1.7927 c 0.57102,0 1.02644,-0.445209 1.02644,-0.99391 v -0.660579 c 0,-0.553163 -0.45989,-0.993912 -1.02644,-0.993912 z" />
  </g>
</svg>
