<svg id="Layer_1" data-name="Layer 1" xmlns="http://www.w3.org/2000/svg" viewBox="0 0 14.14 15.5">
    <path
        d="M15.45,7.05a6.21,6.21,0,0,0-8.4-2.3,5.5,5.5,0,0,0-2.4,2.6,12.22,12.22,0,0,1,.8-5H3.75a13.24,13.24,0,0,0,1,10.8,5.92,5.92,0,0,0,3.7,2.9,6.51,6.51,0,0,0,4.7-.6,5.5,5.5,0,0,0,2.4-2.6,12.22,12.22,0,0,1-.8,5h1.6A12.49,12.49,0,0,0,15.45,7.05Zm-3,7.1a4.61,4.61,0,0,1-6.3-1.7c-.1-.2-.2-.3-.2-.5a4.79,4.79,0,0,1,1.9-5.9,4.61,4.61,0,0,1,6.3,1.7c.1.2.2.3.2.5A4.54,4.54,0,0,1,12.45,14.15Zm-2.3-5.5a1.5,1.5,0,1,1-1.5,1.5,1.54,1.54,0,0,1,1.5-1.5m0-1.6a3.1,3.1,0,1,0,3.1,3.1A3.12,3.12,0,0,0,10.15,7.05Z"
        transform="translate(-3.03 -2.35)" style="fill:#A2C085" />
</svg>