<?xml version="1.0" encoding="UTF-8" standalone="no"?>
<svg xmlns="http://www.w3.org/2000/svg" xmlns:xlink="http://www.w3.org/1999/xlink" version="1.1" width="700" height="700" viewBox="930 285.5 700 700"><g id="document" fill-rule="nonzero" font-family="none" font-weight="none" font-size="none"><rect x="930" y="203.92857" transform="scale(1,1.4)" width="700" height="500" id="Shape-1-1"/></g><g fill="none" fill-rule="nonzero" stroke="none" stroke-width="1" stroke-linecap="none" stroke-linejoin="none" stroke-miterlimit="10" font-family="none" font-weight="none" font-size="none"><g id="stage"><g id="layer1-1" visibility="hidden"><g id="Group-1"><g id="Group-1-1"><g id="Group-1-2"><circle cx="108.84576" cy="54.05439" transform="scale(11.75976,11.75976)" r="23.81" id="Shape-1" fill="#567bbd"/><path d="M1380.66359,646.25048c6.45071,0.87308 12.73174,-2.49933 15.56774,-8.3586c2.836,-5.85927 1.58429,-12.87766 -3.10239,-17.39529l-102.54515,-102.54515c-2.83452,-2.84806 -6.68321,-4.4552 -10.70139,-4.46871c-4.05382,0.00807 -7.94108,1.61368 -10.81898,4.46871l-102.19236,102.19236c-5.90406,5.95863 -5.90406,15.56174 0,21.52037c3.10906,3.07832 7.39581,4.66441 11.75977,4.35111v96.66527c0.0646,8.3972 6.89024,15.17034 15.28769,15.17009h171.57497c8.37821,0 15.1701,-6.79188 15.1701,-15.17009z" id="Path-1" fill="#ffffff"/></g></g></g></g><g id="Layer2-1" fill="#bfc82a" stroke-opacity="0"><path d="M1000.1668,635.66669c0,-154.63967 125.36022,-279.99989 279.99989,-279.99989c154.63967,0 279.99989,125.36022 279.99989,279.99989c0,154.63967 -125.36022,279.99989 -279.99989,279.99989c-154.63967,0 -279.99989,-125.36022 -279.99989,-279.99989z" id="Path-1-1"/></g><g id="Layer3-1"><path d="M1306.26947,800.81417v-52.20557c0,-9.60694 -7.78796,-17.3949 -17.3949,-17.3949h-17.3949c-9.60694,0 -17.3949,7.78796 -17.3949,17.3949v52.20557h-95.72413v-295.81766c0,-19.21725 15.57253,-34.79915 34.78978,-34.81068h174.01163c19.2254,0 34.81068,15.58528 34.81068,34.81068v295.81766zM1227.96111,504.99651c-9.60694,0 -17.3949,7.78796 -17.3949,17.3949v17.39488c0,9.60694 7.78796,17.3949 17.3949,17.3949h17.3949c9.60694,0 17.3949,-7.78796 17.3949,-17.3949v-17.39488c0,-9.60694 -7.78796,-17.3949 -17.3949,-17.3949zM1227.96111,574.59698c-9.60694,0 -17.3949,7.78796 -17.3949,17.3949v17.3949c0,9.60694 7.78796,17.3949 17.3949,17.3949h17.3949c9.60694,0 17.3949,-7.78796 17.3949,-17.3949v-17.3949c0,-9.60694 -7.78796,-17.3949 -17.3949,-17.3949zM1227.96111,644.19746c-9.60694,0 -17.3949,7.78794 -17.3949,17.39488v17.3949c0,9.60694 7.78796,17.3949 17.3949,17.3949h17.3949c9.60694,0 17.3949,-7.78796 17.3949,-17.3949v-17.3949c0,-9.60694 -7.78796,-17.39488 -17.3949,-17.39488zM1314.97736,644.19746c-9.60694,0 -17.3949,7.78794 -17.3949,17.39488v17.3949c0,9.60694 7.78796,17.3949 17.3949,17.3949h17.3949c9.60694,0 17.3949,-7.78796 17.3949,-17.3949v-17.3949c0.00016,-9.5663 -7.72435,-17.33746 -17.29049,-17.39488h-17.3949z" id="CompoundPath-1" fill="#ffffff"/><path d="M1314.97736,574.59699h17.49931c11.5966,0 17.3949,5.79829 17.3949,17.3949v17.3949c0,11.5966 -5.79829,17.39488 -17.3949,17.39488h-17.3949c-11.5966,0 -17.3949,-5.79828 -17.3949,-17.39488v-17.3949c-0.08353,-11.5966 5.67996,-17.3949 17.29049,-17.3949z" id="Path-1-2" fill="#ffffff"/><path d="M1314.97736,504.99653c-9.60694,0 -17.3949,7.78796 -17.3949,17.3949v17.3949c0,9.60694 7.78796,17.39488 17.3949,17.39488h17.3949c9.60694,0 17.3949,-7.78794 17.3949,-17.39488v-17.3949c0,-9.60694 -7.78796,-17.3949 -17.3949,-17.3949z" id="Path-1-3" fill="#ffb541"/></g><g id="Layer4-1" fill="none" font-family="sans-serif" font-weight="normal" font-size="12" text-anchor="start"/></g></g></svg>